<svg xmlns="http://www.w3.org/2000/svg" xmlns:svg="http://www.w3.org/2000/svg" id="svg4" width="240" height="240" version="1.1" viewBox="0 0 240 240"><metadata id="metadata10"/><path style="fill:#fff;fill-opacity:1;stroke-width:4.5454545" id="path2" d="M 38.181641 29.091797 C 28.136187 29.091797 20 37.227983 20 47.273438 L 20 156.36328 C 20 166.40873 28.136187 174.54492 38.181641 174.54492 L 101.81836 174.54492 L 83.636719 201.81836 L 83.636719 210.9082 L 156.36328 210.9082 L 156.36328 201.81836 L 138.18164 174.54492 L 166.98633 174.54492 L 166.98633 138.18164 L 38.181641 138.18164 L 38.181641 47.273438 L 201.81836 47.273438 L 201.81836 81.871094 L 220 81.871094 L 220 47.273438 C 220 37.227984 211.86382 29.091797 201.81836 29.091797 L 38.181641 29.091797 z"/><path id="path6" d="m 187,211.03998 h 18.50666 V 192.53333 H 187 Z M 187,100 v 74.02666 h 18.50666 V 100 Z" style="fill:#fff;fill-opacity:1;stroke-width:9.25333"/></svg>